<svg width="18" height="18" viewBox="0 0 18 18" fill="none" xmlns="http://www.w3.org/2000/svg">
<path d="M6.49286 4.3892C6.20154 4.3892 5.95996 4.14762 5.95996 3.85631V1.72473C5.95996 1.43341 6.20154 1.19183 6.49286 1.19183C6.78417 1.19183 7.02575 1.43341 7.02575 1.72473V3.85631C7.02575 4.14762 6.78417 4.3892 6.49286 4.3892Z" fill="white"/>
<path d="M12.1771 4.3892C11.8857 4.3892 11.6442 4.14762 11.6442 3.85631V1.72473C11.6442 1.43341 11.8857 1.19183 12.1771 1.19183C12.4684 1.19183 12.71 1.43341 12.71 1.72473V3.85631C12.71 4.14762 12.4684 4.3892 12.1771 4.3892Z" fill="white"/>
<path d="M15.3744 7.29522H3.29547C3.00415 7.29522 2.76257 7.05364 2.76257 6.76233C2.76257 6.47101 3.00415 6.22943 3.29547 6.22943H15.3744C15.6657 6.22943 15.9073 6.47101 15.9073 6.76233C15.9073 7.05364 15.6657 7.29522 15.3744 7.29522Z" fill="white"/>
<path d="M12.1769 16.4681H6.49275C3.89933 16.4681 2.40723 14.976 2.40723 12.3826V6.34309C2.40723 3.74967 3.89933 2.25757 6.49275 2.25757H12.1769C14.7704 2.25757 16.2625 3.74967 16.2625 6.34309V12.3826C16.2625 14.976 14.7704 16.4681 12.1769 16.4681ZM6.49275 3.32336C4.46065 3.32336 3.47302 4.31099 3.47302 6.34309V12.3826C3.47302 14.4147 4.46065 15.4023 6.49275 15.4023H12.1769C14.2091 15.4023 15.1967 14.4147 15.1967 12.3826V6.34309C15.1967 4.31099 14.2091 3.32336 12.1769 3.32336H6.49275Z" fill="white"/>
<path d="M6.8481 10.6063C6.75573 10.6063 6.66335 10.585 6.57809 10.5495C6.49283 10.5139 6.41468 10.4642 6.34363 10.4002C6.27968 10.3292 6.22993 10.251 6.19441 10.1658C6.15888 10.0805 6.13757 9.98814 6.13757 9.89577C6.13757 9.71104 6.21573 9.52631 6.34363 9.39131C6.41468 9.32737 6.49283 9.27761 6.57809 9.24208C6.70598 9.18524 6.8481 9.17103 6.9902 9.19945C7.03284 9.20656 7.07547 9.22077 7.1181 9.24208C7.16073 9.25629 7.20335 9.27763 7.24598 9.30605C7.28151 9.33447 7.31704 9.36289 7.35256 9.39131C7.38099 9.42684 7.41651 9.46236 7.43783 9.49788C7.46625 9.54051 7.48758 9.58315 7.50179 9.62578C7.52311 9.66841 7.53731 9.71103 7.54442 9.75366C7.55152 9.8034 7.55863 9.84603 7.55863 9.89577C7.55863 10.0805 7.48046 10.2652 7.35256 10.4002C7.21756 10.5281 7.03284 10.6063 6.8481 10.6063Z" fill="white"/>
<path d="M9.33492 10.6063C9.15018 10.6063 8.96544 10.5281 8.83044 10.4003C8.80202 10.3647 8.77361 10.3292 8.74519 10.2937C8.71677 10.251 8.69543 10.2084 8.68122 10.1658C8.65991 10.1231 8.6457 10.0805 8.63859 10.0379C8.63149 9.98815 8.62439 9.94552 8.62439 9.89578C8.62439 9.80341 8.6457 9.71103 8.68122 9.62577C8.71675 9.54051 8.76649 9.46236 8.83044 9.39131C9.02939 9.19236 9.34913 9.1284 9.6049 9.24209C9.69727 9.27761 9.76832 9.32736 9.83937 9.39131C9.96726 9.52631 10.0454 9.71104 10.0454 9.89578C10.0454 9.94552 10.0383 9.98815 10.0312 10.0379C10.0241 10.0805 10.0099 10.1231 9.98858 10.1658C9.97437 10.2084 9.95305 10.251 9.92463 10.2937C9.89621 10.3292 9.86779 10.3647 9.83937 10.4003C9.76832 10.4642 9.69727 10.5139 9.6049 10.5495C9.51963 10.585 9.42728 10.6063 9.33492 10.6063Z" fill="white"/>
<path d="M6.8481 13.0931C6.75573 13.0931 6.66335 13.0718 6.57809 13.0363C6.49283 13.0007 6.41468 12.951 6.34363 12.8871C6.27968 12.816 6.22993 12.745 6.19441 12.6526C6.15888 12.5673 6.13757 12.475 6.13757 12.3826C6.13757 12.1979 6.21573 12.0131 6.34363 11.8781C6.41468 11.8142 6.49283 11.7644 6.57809 11.7289C6.84098 11.6152 7.15362 11.6792 7.35256 11.8781C7.38099 11.9136 7.41651 11.9492 7.43783 11.9847C7.46625 12.0273 7.48758 12.07 7.50179 12.1126C7.52311 12.1552 7.53731 12.1979 7.54442 12.2476C7.55152 12.2902 7.55863 12.34 7.55863 12.3826C7.55863 12.5673 7.48046 12.7521 7.35256 12.8871C7.21756 13.015 7.03284 13.0931 6.8481 13.0931Z" fill="white"/>
</svg>
